<svg preserveAspectRatio="none" overflow="visible" style="display: block;" width="17" height="17" viewBox="0 0 17 17" fill="none" xmlns="http://www.w3.org/2000/svg">
<g id="&#235;&#143;&#132;&#236;&#155;&#128;&#235;&#167;&#144; &#236;&#139;&#172;&#235;&#179;&#188;" clip-path="url(#clip0_0_4)">
<path id="&#235;&#143;&#132;&#236;&#155;&#128;&#235;&#167;&#144;" d="M6.43847 6.37454C6.60502 5.9011 6.93375 5.50188 7.36643 5.24759C7.79912 4.99329 8.30784 4.90034 8.8025 4.98518C9.29715 5.07003 9.74582 5.3272 10.069 5.71115C10.3922 6.0951 10.5691 6.58105 10.5684 7.08293C10.5684 8.49971 8.44322 9.2081 8.44322 9.2081M8.5 12.0419H8.50708M15.5839 8.5C15.5839 12.4123 12.4123 15.5839 8.5 15.5839C4.58767 15.5839 1.4161 12.4123 1.4161 8.5C1.4161 4.58767 4.58767 1.4161 8.5 1.4161C12.4123 1.4161 15.5839 4.58767 15.5839 8.5Z" stroke="#7A8983" stroke-width="1.8" stroke-linecap="round"/>
</g>
<defs>
<clipPath id="clip0_0_4">
<rect width="17" height="17" fill="white"/>
</clipPath>
</defs>
</svg>
